<svg width="116" height="128" viewBox="0 0 116 128" fill="none" xmlns="http://www.w3.org/2000/svg">
<path fill-rule="evenodd" clip-rule="evenodd" d="M88.709 77.1436C88.4604 78.7948 87.8312 80.3658 86.8712 81.7327C85.9112 83.0996 84.6474 84.2247 83.1781 85.0189C82.7712 85.2446 82.3447 85.4339 81.9048 85.5848C82.464 92.9954 70.688 95.6901 64.3419 93.925L66.6998 102.171L60.6366 102.387L50.0261 87.1949C46.4488 88.2055 42.2248 88.6905 39.4964 84.3116C39.2485 83.9094 39.0236 83.493 38.8227 83.0653C38.1287 83.2067 37.4224 83.2788 36.7141 83.2808C34.693 83.2808 31.3246 82.6745 29.6134 81.4888C28.2568 80.5895 27.1806 79.3263 26.5078 77.8442C22.8631 78.3427 19.7709 77.4871 17.7499 75.3718C15.1899 72.7377 14.4623 68.3857 15.7962 63.717C17.5545 57.4855 22.9035 50.4657 33.5343 47.8316C34.4565 46.6851 35.5602 45.6975 36.8016 44.9078C43.4779 40.6299 54.3174 40.2594 62.5431 44.3217C65.7321 43.7276 69.024 44.0428 72.0421 45.2311C77.957 47.4476 82.2551 52.0825 83.0635 56.7916C84.6649 57.6213 85.9759 58.9182 86.8227 60.5103C88.5945 63.8383 88.8438 67.173 87.6513 69.8678C88.7744 72.1172 89.1456 74.6678 88.709 77.1436ZM84.3435 73.6404C83.4017 74.1376 82.3535 74.3976 81.2884 74.3976C80.2233 74.3976 79.175 74.1376 78.2332 73.6404L78.725 70.373C80.8 70.5751 82.4909 69.9284 83.3734 68.6012C84.3638 67.1259 84.2088 64.9364 82.9557 62.5852C81.5545 59.9511 78.5296 59.5335 76.8522 59.5132H76.7444C72.5406 59.5132 68.256 61.9048 66.5246 65.024L64.005 63.8181C64.5004 62.2113 65.342 60.7326 66.4707 59.4863C65.499 58.6613 64.7645 57.5924 64.343 56.3894C63.9215 55.1864 63.8281 53.8928 64.0724 52.6417L66.5583 52.4126C66.6721 53.4245 67.0905 54.3779 67.7582 55.1466C68.4259 55.9154 69.3116 56.4631 70.2972 56.7175C72.3708 55.7919 74.6223 55.332 76.8926 55.3701C77.216 55.3701 77.5259 55.4038 77.8425 55.424C76.2317 52.5684 73.6791 50.3609 70.6206 49.1789C63.1562 46.2821 58.1238 50.7756 56.9718 52.325C54.1962 56.0438 55.9747 59.5604 57.3288 61.8442L55.1057 63.8652C53.1695 62.1905 51.8703 59.8991 51.4273 57.3777C48.5777 58.2332 44.7511 58.0513 42.6088 54.3932L44.6299 53.0055C46.9002 54.7031 50.5044 54.5549 52.2155 52.4598C52.6233 51.5334 53.1388 50.6583 53.7515 49.8526C54.7243 48.5679 55.8982 47.4486 57.2278 46.5381C51.6429 45.0156 43.7541 45.2648 38.9844 48.3234C37.6955 49.0718 36.6346 50.1569 35.9153 51.4624C35.1962 52.7679 34.8458 54.2445 34.9019 55.7339C34.9019 58.1389 36.7882 61.9385 39.328 62.5314L37.8526 65.3945C36.2321 65.0192 34.761 64.1675 33.6286 62.949L31.4391 65.7381L29.2496 64.6737L31.392 59.0686C31.0419 57.9799 30.8624 56.8437 30.8598 55.7002C30.8651 54.7948 30.9599 53.8922 31.1427 53.0055C24.4059 55.7878 21.0779 60.416 19.8585 64.6467C18.9221 67.9006 19.2859 70.8379 20.8219 72.4143C22.0412 73.6674 23.9073 73.9638 25.6656 73.8493L30.3814 70.1777L31.9309 71.4846L30.5296 76.0791C31.264 78.4168 33.669 79.6227 38.0547 78.7739C38.2821 76.9138 39.0162 75.1522 40.1768 73.6808C41.0279 72.4561 42.1538 71.4482 43.4644 70.7368L45.7684 64.5322L48.0724 64.4311L47.8231 69.5175C51.6968 69.12 56.0286 69.9082 60.064 69.3019L60.805 71.9966C54.8901 74.7318 48.8336 70.272 43.3431 76.1532C41.3692 78.2686 42.1238 80.1078 43.3431 81.9604C45.1014 84.608 48.4025 83.0181 51.7776 81.9604C56.8909 80.3975 60.6029 79.2657 67.6025 79.8383C65.9318 76.6652 66.0934 72.832 68.3301 68.6147L71.6244 69.9149C69.3136 75.2438 71.4762 78.3293 72.9718 79.6901C75.2825 81.792 78.7587 82.4253 81.056 81.1587C81.9358 80.673 82.6923 79.9912 83.267 79.1666C83.8417 78.342 84.2189 77.3962 84.3705 76.4025C84.5221 75.487 84.5106 74.5519 84.3368 73.6404H84.3435Z" fill="#86045F"/>
</svg>
