<svg width="128" height="128" viewBox="0 0 128 128" fill="none" xmlns="http://www.w3.org/2000/svg">
<path d="M122.667 101.333C122.667 104.162 121.543 106.875 119.542 108.876C117.542 110.876 114.829 112 112 112H15.9999C13.1709 112 10.4578 110.876 8.45745 108.876C6.45706 106.875 5.33325 104.162 5.33325 101.333V42.6667C5.33325 39.8377 6.45706 37.1246 8.45745 35.1242C10.4578 33.1238 13.1709 32 15.9999 32H37.3333L47.9999 16H79.9999L90.6666 32H112C114.829 32 117.542 33.1238 119.542 35.1242C121.543 37.1246 122.667 39.8377 122.667 42.6667V101.333Z" stroke="#8A226F" stroke-width="4" stroke-linecap="round" stroke-linejoin="round"/>
<path d="M63.9999 90.6667C75.782 90.6667 85.3332 81.1154 85.3332 69.3333C85.3332 57.5513 75.782 48 63.9999 48C52.2178 48 42.6666 57.5513 42.6666 69.3333C42.6666 81.1154 52.2178 90.6667 63.9999 90.6667Z" stroke="#8A226F" stroke-width="4" stroke-linecap="round" stroke-linejoin="round"/>
</svg>
