<svg width="610" height="800" viewBox="0 0 610 800" fill="none" xmlns="http://www.w3.org/2000/svg">
<g opacity="0.5">
<path d="M785.886 491.369C770.366 482.717 738.492 462.858 713.154 441.529C739.046 424.803 768.671 409.255 774.932 406.477C782.711 403.025 786.218 393.92 782.769 386.142C779.314 378.36 770.212 374.849 762.434 378.305C753.16 382.422 709.391 405.588 679.68 427.034H626.708C609.265 427.034 592.012 423.4 576.052 416.363C531.637 396.778 505.022 350.683 510.271 302.425C512.197 284.702 517.911 267.6 527.022 252.277L544.572 222.757C587.754 217.003 629.372 201.006 665.249 176.28C671.979 171.643 674.677 162.625 670.637 155.517C666.095 147.529 655.806 145.32 648.431 150.437C629.969 163.252 601.865 178.806 565.502 187.557L591.511 143.812C595.625 136.895 594.252 127.708 587.763 122.945C580.32 117.483 569.982 119.72 565.369 127.471L499.08 238.957C490.385 253.582 478.828 266.298 465.098 276.348C425.932 305.018 372.705 305.018 333.538 276.348C319.354 265.963 307.551 252.665 298.929 237.342L266.052 178.926C271.822 143.108 264.228 80.0338 257.188 55.9231C254.862 47.9631 246.769 42.7323 238.698 44.64C229.975 46.7015 224.917 55.64 227.465 64.0923C233.563 84.32 238.982 133.763 236.745 164.209C213.754 157.729 191.388 148.191 177.778 138.905C171.225 134.434 162.163 135.098 156.951 141.08C150.806 148.135 152.283 158.745 159.76 163.92C178.222 176.702 218.831 191.917 240.809 196.917L272.692 253.566C281.169 268.625 286.502 285.249 288.372 302.428C293.622 350.683 267.006 396.782 222.591 416.366C206.631 423.403 189.378 427.037 171.935 427.037H133.465C107.671 390.157 99.3138 377.511 99.2308 377.382C94.5446 370.277 84.9908 368.308 77.8831 372.991C70.7754 377.674 68.8092 387.228 73.4892 394.332C73.7815 394.775 79.4308 403.329 95.8923 427.034H22.2277C14.1785 427.034 6.99076 432.917 6.22769 440.932C5.35076 450.123 12.5538 457.855 21.5661 457.855H91.6246C74.9754 475.286 53.4369 495.194 34.3415 508.975C28.1908 513.415 26.3138 521.735 30.1262 528.295L30.4123 528.788C35.0523 536.779 45.4585 538.978 52.8461 533.606C82.0585 512.363 115.305 479.314 132.889 457.855H171.975C189.406 457.855 206.649 461.486 222.597 468.52C267.009 488.102 293.625 534.197 288.375 582.452C286.502 599.677 281.169 616.348 272.695 631.465L242.16 685.926C192.265 692.862 145.988 722.274 143.938 723.591C136.778 728.194 134.837 737.643 139.305 744.886C145.098 754.283 156.455 752.028 160.6 749.52C163.003 748.068 188.622 731.702 222.037 721.822L216.049 732.84C211.988 740.163 214.511 749.391 221.732 753.631C229.194 758.012 238.8 755.4 243.015 747.843L265.215 707.825L299.055 647.465C307.631 632.169 319.394 618.889 333.542 608.532C372.708 579.858 425.935 579.858 465.102 608.532C481.452 620.502 494.742 636.163 503.892 654.24L551.006 747.32C554.858 754.911 564.135 757.938 571.723 754.086C579.311 750.234 582.342 740.96 578.489 733.369L551.197 679.268C573.271 684.218 603.422 693.892 625.554 711.403C632.551 716.938 642.609 714.262 647.215 709.018C652.831 702.622 651.474 692.677 644.831 687.357C607.714 657.6 554.425 647.597 533.655 644.705L521.883 621.514C515.686 609.302 511.751 596.068 510.268 582.455C505.018 534.2 531.631 488.105 576.046 468.523C591.997 461.489 609.237 457.858 626.671 457.858H685.003C713.403 483.517 752.726 508.114 770.874 518.292C778.166 522.382 788.012 518.957 791.84 512.335C796.102 504.966 793.32 495.514 785.886 491.369ZM347.954 485.252C319.585 485.252 296.585 466.086 296.585 442.446C296.585 418.806 319.582 399.64 347.954 399.64C376.323 399.64 399.323 418.806 399.323 442.446C399.323 466.086 376.323 485.252 347.954 485.252Z" fill="#86045F" stroke="#86045F" stroke-width="3.07692"/>
</g>
</svg>
