<svg width="700" height="1309" viewBox="0 0 700 1309" fill="none" xmlns="http://www.w3.org/2000/svg">
<g opacity="0.2">
<path d="M252.842 401.863C253.24 401.381 253.607 400.858 254.015 400.376C253.596 400.879 253.219 401.35 252.842 401.863Z" fill="#86045F"/>
<path d="M60.9902 578.775C61.0213 578.723 61.2286 578.609 61.2182 578.589C61.125 578.62 61.0524 578.703 60.9902 578.775Z" fill="#86045F"/>
<path d="M60.8849 578.955C60.8645 579.026 60.8645 579.036 60.8849 578.955V578.955Z" fill="#86045F"/>
<path d="M331.304 560.797C361.847 560.797 386.607 536.032 386.607 505.483C386.607 474.935 361.847 450.17 331.304 450.17C300.762 450.17 276.002 474.935 276.002 505.483C276.002 536.032 300.762 560.797 331.304 560.797Z" fill="#86045F"/>
<path d="M828.389 197.251C827.195 200.214 826.64 204.968 823.656 210.142C822.295 212.77 820.976 215.765 819.238 218.844C817.217 221.734 815.029 224.876 812.684 228.216C810.129 231.379 806.988 234.416 803.952 237.777C800.622 240.866 796.832 243.83 793.021 246.982C784.593 252.658 775.934 258.072 764.92 262.345C754.492 266.868 742.964 269.654 730.735 271.549C726.725 272.178 722.516 272.502 718.349 272.879C718.129 272.513 717.93 272.272 717.773 272.335C716.234 272.806 715.281 273.089 714.632 273.288C707.293 273.874 699.807 274.314 692.164 274.722C685.452 275.026 678.668 275.361 671.538 275.874C670.103 275.958 668.826 276.105 667.465 276.22C668.554 274.911 669.643 273.591 670.533 272.021C672.867 268.167 674.417 263.402 674.501 258.836C674.773 256.512 674.375 254.333 674.26 252.103L673.6 246.26C672.993 242.196 673.129 238.605 672.888 234.793C673.213 231.086 672.983 227.242 673.852 223.776C674.176 222.006 674.501 220.268 674.825 218.561C675.401 216.938 675.956 215.346 676.5 213.796C677.369 210.55 679.327 208.058 680.668 205.471C682.05 202.874 684.175 201.146 685.63 199.24C687.075 197.282 688.897 196.182 690.216 195.072C692.959 192.915 694.519 191.679 694.519 191.679C694.519 191.679 692.813 192.716 689.829 194.528C688.353 195.491 686.363 196.392 684.646 198.183C682.929 199.931 680.49 201.502 678.71 204.016C676.972 206.518 674.563 209 673.202 212.299C672.417 213.901 671.601 215.545 670.773 217.221C670.198 219.001 669.622 220.813 669.025 222.666C667.643 226.363 667.371 230.353 666.543 234.384C666.271 238.406 665.685 242.783 665.79 246.668L665.737 252.752C665.58 254.48 665.727 256.281 665.277 257.831C664.805 261.098 663.444 263.769 661.623 266.083C659.843 268.481 657.445 270.293 655.058 272.052C652.304 273.864 649.331 275.885 646.996 277.56C646.347 278.042 645.74 278.398 645.111 278.807C633.28 280.461 621.324 282.451 609.44 285.31C595.599 288.525 582.218 293.666 569.466 300.096C562.974 303.709 556.441 307.458 551.866 310.956L548.096 313.584L546.233 314.893L543.772 316.883C541.312 318.925 538.862 320.935 536.464 322.925C526.968 331.041 518.529 339.439 511.221 347.723C503.923 356.027 497.778 364.237 492.668 371.84C490.239 375.746 487.967 379.401 485.863 382.773C485.402 383.652 485.046 384.354 484.606 385.213C463.373 365.703 436.968 351.692 407.526 345.974C408.615 342.351 409.735 338.612 410.845 334.737C414.175 325.145 416.405 312.013 419.001 299.143C421.441 286.304 421.954 271.172 419.671 256.396C417.504 241.537 412.102 225.954 402.186 212.728C392.407 199.345 377.77 189.637 362.578 184.705C348.412 180.391 331.943 178.736 317.714 178.966C312.72 179.071 307.935 179.417 303.119 179.72L302.962 179.511C302.962 179.511 302.774 179.679 302.711 179.741C299.35 179.961 295.989 180.108 292.702 180.359C287.393 179.563 280.902 177.877 274.316 175.93C272.683 175.354 269.804 174.6 268.307 173.762C266.506 173.039 264.81 172.024 263.239 170.84C261.721 169.646 260.297 168.348 259.208 166.882C258.056 165.447 257.083 163.96 256.381 162.442C254.853 159.499 253.942 156.766 253.397 154.849C252.842 152.923 252.518 151.823 252.518 151.823C252.518 151.823 252.602 152.965 252.738 154.975C252.863 156.986 253.177 159.886 254.099 163.321C254.486 165.07 255.177 166.892 256.109 168.798C256.978 170.704 258.297 172.6 259.794 174.411C261.323 176.191 263.103 177.898 265.249 179.375C266.757 180.537 268.024 181.27 269.395 182.045C258.842 182.621 248.602 182.852 239.305 181.637C227.945 180.202 217.904 175.867 211.947 168.044C208.24 163.95 206.282 159.928 203.979 155.897C202.157 151.593 200.272 147.53 199.33 143.404C196.838 135.319 196.378 127.842 196.283 121.737C196.577 115.663 197.069 110.773 198.199 107.663C199.1 104.469 199.571 102.762 199.571 102.762C199.571 102.762 198.932 104.416 197.749 107.526C196.325 110.584 195.372 115.422 194.483 121.632C193.99 127.863 193.76 135.612 195.571 144.294C196.168 148.702 197.739 153.163 199.278 157.939C201.288 162.536 203.591 167.877 206.722 171.971C212.857 181.93 225.076 188.548 237.514 191.198C250.152 194.036 263.25 194.496 276.745 194.905C290.136 195.156 303.842 195.041 317.233 195.994C330.854 197.177 342.664 199.387 355.344 204.351C366.62 209.346 375.907 217.011 381.759 226.855C387.706 236.615 390.669 248.103 391.224 259.559C391.842 271.162 390.596 282.042 387.455 292.849C384.094 303.562 381.979 313.113 377.414 323.313C374.629 330.475 371.98 336.937 369.51 343.387C333.692 345.23 299.528 359.106 272.557 381.998L271.762 381.296L271.594 381.17L270.934 380.668L269.615 379.673L266.977 377.683L264.328 375.693L259.595 372.971L254.706 370.457L252.246 369.295L251.021 368.74L250.706 368.604L250.549 368.531L249.021 368.018L248.612 367.923L235.713 364.939L219.747 362.96L206.021 362.206L193.32 361.514C189.792 361.347 184.787 360.677 180.589 360.289C174.684 359.556 168.988 358.624 163.23 357.556C162.371 356.949 161.523 356.31 160.979 355.514L157.848 351.754C156.12 346.592 154.466 341.356 152.969 336.005C151.419 330.433 149.744 324.831 147.933 319.249C145.975 313.689 143.672 308.264 140.866 303.112C139.264 300.641 137.788 298.106 136.112 295.729L130.574 289.017L135.233 296.295C136.594 298.829 137.735 301.468 138.981 304.023C141.086 309.332 142.667 314.799 143.902 320.37C146.237 331.533 147.399 343.063 149.996 354.666V354.697C143.986 353.21 137.997 351.576 132.176 349.555C124.386 346.864 116.732 343.733 109.487 339.953C105.707 338.267 102.367 335.973 98.8496 333.889L96.2216 332.308L95.5725 331.91C95.6143 331.962 95.0071 331.512 95.5934 331.983L95.2584 331.743L93.9287 330.758L88.6099 326.821C84.8198 324.203 82.1185 321.564 79.0403 318.946C75.9307 316.464 73.1562 313.364 70.2874 310.39C67.2721 307.51 64.8326 304.222 62.2779 300.976C59.5557 297.824 57.4512 294.316 55.3048 290.807C52.9281 287.394 51.2425 283.686 49.5778 279.938C47.6199 276.272 46.4263 272.387 45.3165 268.439C43.8716 264.554 43.2539 260.522 42.7723 256.438L41.9556 250.553L41.9033 243.935C41.7672 239.463 41.8823 235.138 42.3325 230.991C42.6362 226.782 42.9502 222.52 43.5889 218.153L47.1383 191.962C48.3528 183.187 49.159 174.285 49.4521 165.416C49.3265 160.955 49.4312 156.504 49.1276 152.095L47.3267 138.942L47.8293 152.137C47.6932 156.515 47.1697 160.892 46.8556 165.227C45.7143 173.909 44.0601 182.485 42.0079 191.03L35.883 216.823C34.8046 221.116 34.0193 225.598 33.255 230.133C32.3337 234.698 31.7892 239.16 31.4856 243.505L30.8783 250.092C30.7946 252.909 31.0249 254.909 31.0877 257.37C31.182 262.104 31.4751 266.827 32.6373 271.413C33.4749 276.073 34.4486 280.723 36.2076 285.1C37.7048 289.593 39.2753 294.064 41.5368 298.19C43.568 302.442 45.6515 306.704 48.3214 310.558C50.8237 314.527 53.3051 318.569 56.3309 322.129C59.9117 326.957 64.2776 331.879 68.6855 336.392C67.8374 336.005 67.0208 335.68 66.1622 335.272C63.2411 333.889 59.7127 332.339 57.0847 330.905L52.5198 328.496L48.5831 325.868C45.9342 324.15 43.5156 321.93 41.1494 319.909C36.6159 315.595 32.7315 311.071 29.7581 306.903C23.7483 298.609 20.3665 292.546 20.3665 292.546C20.3665 292.546 22.8269 298.976 27.6955 308.222C30.0931 312.861 33.3807 318.056 37.5163 323.302C39.7045 325.815 41.8823 328.486 44.615 330.884L48.7506 334.549L52.9177 337.596C56.0692 339.9 58.6867 341.481 61.6392 343.44C64.487 345.335 67.4082 347.126 70.2665 348.843C73.1143 350.561 76.0669 352.069 78.8309 353.514C81.8044 354.739 84.401 356.195 87.2593 356.99C90.1595 357.807 92.3372 358.823 95.4992 359.033C95.6353 359.043 95.7714 359.064 95.9075 359.074C96.5043 359.451 97.0487 359.891 97.656 360.237C105.582 365.431 113.916 369.84 122.428 373.767C130.961 377.694 139.704 380.992 148.572 383.904C157.304 386.741 166.716 389.202 175.762 391.223C180.285 392.103 183.95 393.014 189.174 393.862L202.764 395.957L215.339 397.905C218.742 398.69 222.113 399.392 225.484 400.009L238.006 404.24L238.394 404.376C237.87 404.198 236.855 403.863 237.043 403.936L237.074 403.968L237.127 404.031L237.347 404.261L237.797 404.68C238.08 404.931 238.394 405.141 238.718 405.319C239.043 405.507 239.367 405.612 239.786 405.759L242.215 408L244.644 410.241L245.629 411.141C245.618 411.152 245.618 411.162 245.608 411.173C245.587 411.194 245.576 411.214 245.555 411.246C245.335 411.288 245.147 411.215 245.074 411.068L245.178 411.56C245.199 411.633 245.21 411.675 245.231 411.738C237.493 422.671 231.023 434.64 226.207 447.573C219.516 465.533 216.48 483.932 216.47 502.08C214.773 503.839 212.753 505.902 210.91 507.379C208.052 510.248 204.125 513.002 199.581 516.175C198.482 516.709 197.341 517.254 196.168 517.819L194.378 518.751L193.467 519.244L193.006 519.495L192.943 519.526C191.216 519.945 195.247 518.992 194.797 519.097L194.608 519.139L194.242 519.223C190.483 520.04 185.813 521.38 182.243 521.883C180.903 521.83 179.552 521.851 178.149 521.935C176.736 521.998 175.448 522.333 173.249 521.966C169.25 521.506 165.198 521.464 160.591 520.354C158.392 519.935 156.162 519.505 153.901 519.076C151.388 518.437 148.833 517.788 146.247 517.139C141.086 515.83 135.809 514.5 130.448 513.138C119.528 510.5 108.964 507.19 96.8812 504.918C90.9343 503.766 85.1234 502.258 78.988 501.41L60.3723 499.462L55.7446 499.001L55.4619 498.97L54.4254 498.928L53.8705 498.949L52.7711 498.991L50.5619 499.085L41.7357 499.462L32.9305 499.829C29.9989 499.975 26.7217 500.792 23.6645 501.253C17.5186 502.457 11.2576 503.201 5.53046 504.834C-0.112869 506.646 -5.67244 508.447 -11.1483 510.206C-16.6555 511.819 -21.5554 514.688 -26.602 516.793C-31.5857 519.066 -36.4856 521.16 -40.8621 523.967C-49.8558 529.108 -58.2423 534.03 -65.3933 539.465C-69.0369 542.073 -72.5967 544.471 -75.8319 546.921C-78.9729 549.497 -81.9569 551.937 -84.7628 554.231C-90.4061 558.765 -95.2119 562.807 -98.9392 566.43C-106.54 573.457 -110.875 577.468 -110.875 577.468C-110.875 577.468 -106.132 573.96 -97.8189 567.834C-93.7461 564.661 -88.532 561.194 -82.4908 557.351C-79.4964 555.403 -76.3031 553.34 -72.9422 551.152C-69.4976 549.11 -65.7598 547.152 -61.9382 545.015C-54.4208 540.502 -45.7725 536.659 -36.6427 532.7C-32.1825 530.48 -27.293 529.024 -22.3721 527.412C-17.3884 525.967 -12.5512 523.757 -7.26388 522.846C-2.04982 521.788 3.248 520.699 8.61912 519.61C13.9483 518.71 19.2671 518.762 24.5754 518.249C27.2871 518.134 29.7685 517.652 32.6582 517.819L41.4426 518.427L50.2583 519.034L52.4675 519.191L53.5668 519.265L54.1217 519.296C53.8391 519.286 54.9489 519.338 53.5145 519.275L53.6506 519.306L53.9019 519.359L58.0061 520.27L74.2765 523.82C79.6685 525.181 85.0501 527.255 90.3584 528.899C94.8396 530.25 99.394 531.957 103.938 533.674C100.462 534.931 96.9126 536.344 93.4052 538.418C88.4738 541.402 84.2335 545.822 81.239 550.733C75.8575 560.2 70.5701 569.645 65.2828 578.138C63.0422 578.253 61.0529 578.4 60.9901 578.599C60.9482 578.735 60.9272 578.777 60.9063 578.84C60.6027 579.185 59.5557 579.845 57.4826 580.222C55.0326 580.693 51.7032 580.819 48.1643 580.536C44.4265 580.117 40.4375 579.667 36.4484 579.217C32.4803 578.641 27.9677 579.248 24.1357 579.238C20.2932 579.772 16.7648 580.379 13.7494 580.882C7.8548 582.39 3.91809 583.374 3.91809 583.374C3.91809 583.374 7.93856 583.029 13.9693 582.505C16.9846 582.484 20.5026 582.463 24.1985 582.547C27.8944 583.196 31.5589 583.144 35.4851 584.348C39.4114 585.448 43.3376 586.558 47.0231 587.605C50.8656 588.526 54.5615 589.04 58.0689 589.008C55.7132 592.275 53.3679 595.312 50.9807 597.951C48.5831 600.936 46.0703 603.376 43.7774 605.491C41.5787 607.701 39.5475 609.502 37.6943 610.779C34.1136 613.492 32.0719 615.042 32.0719 615.042C32.0719 615.042 34.2601 613.68 38.0922 611.324C40.071 610.224 42.2906 608.612 44.7197 606.591C47.243 604.685 50.028 602.444 52.7502 599.658C58.8437 594.056 65.021 586.568 71.2193 578.306L71.6904 577.908C71.6904 577.908 71.5543 577.908 71.5019 577.908C76.9568 570.619 82.4221 562.744 87.8665 554.964C90.662 551.361 93.9496 548.544 97.9073 546.586C101.938 544.722 106.409 543.57 110.963 542.533C114.733 541.79 118.606 540.9 121.967 540.502C121.978 540.512 121.988 540.512 122.009 540.523C127.192 542.471 132.291 544.376 137.285 546.251C139.777 547.193 142.248 548.115 144.677 549.037C147.462 549.906 150.194 550.764 152.906 551.623C158.016 553.445 163.816 554.419 169.218 555.571C174.537 556.754 181.824 556.66 187.761 556.817C192.954 556.534 196.598 555.833 200.775 555.403L201.152 555.362L201.34 555.341L203.361 554.859L203.487 554.817L204.408 554.513L206.251 553.885L209.853 552.639C212.219 551.77 214.512 550.932 216.731 550.115C218.909 549.026 220.961 547.937 222.94 546.858C234.562 586.956 261.218 622.278 297.979 643.431C294.157 651.714 290.901 661.527 288.901 672.407C286.168 686.68 285.414 702.65 286.064 719.343C286.566 736.066 288.514 753.649 289.205 771.399C289.812 788.782 288.786 807.862 277.792 815.685C275.175 817.915 271.51 819.287 267.678 820.596L264.548 821.246L262.977 821.591L262.192 821.769L261.847 821.853L254.371 822.408L246.581 823.005C244.267 822.89 242.152 822.576 239.912 822.408L233.222 821.853L226.311 820.136C207.738 815.58 190.724 803.883 175.26 789.683C159.419 775.839 145.263 759.032 125.621 747.062C115.958 741.271 104.064 736.904 92.2954 738.297C86.2437 738.182 81.1867 739.983 75.3654 742.465C70.2037 745.083 65.6387 748.444 61.7125 752.204C46.2902 767.619 38.1236 785.965 29.9989 802.616C22.1673 819.486 15.3409 835.561 8.35737 850.044C1.42623 864.547 -5.56773 877.533 -12.7711 888.403C-19.9116 899.314 -27.1778 908.121 -33.8053 914.74C-36.1715 917.159 -38.4121 919.18 -40.569 921.033C-40.7051 920.866 -40.7783 920.656 -40.9249 920.499C-45.8982 915.536 -57.5827 919.169 -62.5455 924.133C-67.5083 929.107 -63.8752 933.516 -58.9019 938.49C-53.9391 943.454 -49.5208 947.088 -44.558 942.124C-39.9722 937.537 -36.6008 927.254 -40.0245 921.808C-37.7525 920.038 -35.3863 918.091 -32.8526 915.734C-25.8586 909.368 -18.1003 900.781 -10.3735 890.068C-2.58378 879.386 5.09074 866.579 12.7443 852.285C20.4398 838.022 28.041 822.188 36.5426 805.862C45.1699 789.83 54.4254 772.184 68.4238 759.555C75.6271 753.439 83.4587 749.261 92.8503 749.638C101.991 748.905 110.817 752.644 118.91 757.942C135.243 768.791 148.781 785.892 164.517 801.15C179.929 816.627 198.65 831.362 221.212 838.074L229.62 840.504C232.562 841.017 235.598 841.341 238.603 841.729C241.577 842.064 244.676 842.493 247.555 842.692L255.366 842.472L263.124 842.252L264.401 842.158L264.967 842.064L266.076 841.886L268.296 841.519L272.735 840.765C278.672 839.153 284.797 837.121 290.252 833.184C301.727 825.686 307.611 812.837 310.113 802.092C312.762 791.065 313.16 780.834 313.317 771.189C313.443 751.931 312.291 734.621 312.563 719.049C312.668 703.467 314.071 689.717 316.793 678.324C318.929 669.171 321.934 661.673 325.201 655.61C332.54 658.123 340.047 660.312 347.91 661.747C379.697 667.517 410.897 663.035 438.58 651.128C441.229 657.966 444.611 665.077 449.343 671.873C455.72 682.209 464.985 691.142 474.901 699.666L476 700.566L476.45 700.881L477.351 701.509L479.162 702.765L482.805 705.31C485.245 707.017 487.726 708.745 490.229 710.494C494.94 714.065 501.149 717.374 506.803 720.851C509.755 722.61 512.729 724.369 515.723 726.149C518.571 727.668 521.44 729.186 524.319 730.715C530.088 733.773 535.92 736.873 541.804 739.993C547.426 743.104 553.091 746.235 558.776 749.376L567.33 754.11C570.251 755.806 572.963 757.838 575.8 759.691C577.569 760.896 579.307 762.089 581.077 763.283C581.15 764.131 581.182 765.189 581.15 766.456C581.129 767.116 581.108 767.807 581.087 768.498C580.983 770.32 581.129 770.268 581.14 771.273C581.276 772.865 581.203 774.226 581.506 776.237C581.831 778.206 582.176 780.237 582.543 782.353C583.024 784.206 583.516 786.123 584.029 788.091C584.647 790.102 585.275 792.175 585.935 794.28C586.793 796.228 587.212 797.862 588.479 800.166C590.835 804.899 593.683 808.323 596.709 811.894C599.734 815.12 602.802 818.387 605.87 821.654C607.357 823.152 608.822 825.058 609.995 826.283C611.231 828.084 612.696 829.969 613.387 831.561C615.188 834.859 616.465 838.839 616.727 842.64C617.544 850.305 614.769 857.72 610.204 862.086C607.995 864.359 605.367 865.773 602.949 866.788C600.467 867.668 598.195 868.16 596.258 868.296C594.342 868.642 592.814 868.338 591.777 868.412C590.73 868.391 590.175 868.38 590.175 868.38C590.175 868.38 590.73 868.453 591.756 868.59C592.803 868.642 594.311 869.113 596.29 868.977C598.269 869.05 600.656 868.82 603.399 868.171C606.069 867.396 609.095 866.191 611.838 863.94C617.46 859.667 621.659 851.531 621.69 842.483C621.837 837.928 620.999 833.362 619.125 828.744C618.214 826.251 617.094 824.523 616.036 822.534C614.466 820.272 613.377 818.523 611.922 816.659C609.273 813.13 606.613 809.59 603.996 806.114C601.682 802.763 599.494 799.118 598.457 796.207C597.776 794.825 597.305 792.406 596.729 790.605C596.415 788.824 596.08 787.086 595.777 785.39C595.526 783.609 595.274 781.881 595.044 780.216C594.939 778.75 594.845 777.357 594.772 776.007C594.677 775.075 594.772 773.912 594.855 772.771C599.462 776.007 604.038 779.232 608.341 782.604C618.58 790.458 628.003 798.825 635.573 808.177C639.656 812.68 642.766 817.685 645.939 822.555L647.132 824.377C647.174 824.22 647.708 825.508 647.959 826L649.886 830.074C651.121 832.765 652.514 835.446 653.592 838.053C656.942 848.096 659.351 858.578 659.748 868.474C660.45 878.339 659.759 887.523 658.806 895.607C657.822 903.702 656.43 910.718 655.079 916.457C653.959 922.259 652.409 926.646 651.666 929.736C650.828 932.793 650.378 934.417 650.378 934.417C650.378 934.417 650.985 932.846 652.116 929.872C653.152 926.887 655.131 922.636 656.806 916.939C658.743 911.315 660.816 904.404 662.628 896.257C664.387 888.141 666.03 878.789 666.303 868.38C666.847 857.992 665.591 846.672 662.596 834.388C661.727 831.54 660.638 828.848 659.665 826.01L658.136 821.78C657.78 820.9 657.853 820.733 657.131 819.266L656.032 817.151C653.1 811.475 650.148 805.59 646.19 800.239C638.84 789.107 629.438 779.012 619.439 769.661C609.451 760.162 598.782 751.617 588.406 742.967C583.391 738.517 577.779 734.569 571.937 730.631C566.199 726.673 560.472 722.725 554.797 718.809C549.258 715.133 543.741 711.499 538.317 707.897C536.852 706.933 535.428 705.98 533.972 705.027C535.134 704.682 536.297 704.336 537.448 703.97C540.118 703.205 543.238 702.189 545.353 701.771C548.337 701.32 551.321 700.881 553.551 701.278C555.97 701.163 558.629 702.221 561.142 702.786C566.094 704.64 570.659 707.017 574.544 709.227C582.323 713.667 587.851 715.939 587.851 715.939C587.851 715.939 582.804 712.808 575.894 707.185C572.429 704.378 568.23 701.174 563.131 698.242C560.378 697.111 557.781 695.487 554.336 694.953C550.819 693.969 547.876 694.011 544.945 693.938C541.165 694.021 538.516 694.566 535.459 694.88C532.59 695.278 529.69 695.655 527.554 695.707C525.607 696.001 523.052 695.749 520.634 695.529C516.707 692.691 512.844 690.063 509.001 686.544C504.593 682.774 500.301 679.067 496.113 675.475C489.224 668.093 483.057 661.003 479.57 653.537C475.497 646.363 473.644 639.148 472.252 632.781C472.189 632.404 472.157 632.069 472.105 631.692C501.986 609.345 524.424 577.143 533.271 539.633C536.391 538.763 539.668 537.852 543.228 536.858C547.112 535.779 551.248 534.637 555.603 533.423L557.247 532.972L557.655 532.857C557.027 532.983 559.205 532.543 556.273 533.119L556.378 533.098L556.598 533.056L557.446 532.878L560.891 532.166C563.226 531.684 565.592 531.192 568.031 530.69C572.868 529.705 576.805 529.443 581.538 528.679C586.123 528.302 590.95 528.218 595.86 528.093C598.227 528.323 600.624 528.564 603.053 528.794L606.749 529.108L607.221 529.14L607.336 529.15C604.98 528.49 606.76 528.983 606.268 528.846L606.529 528.92L607.608 529.203L609.765 529.778C613.471 530.595 613.649 531.276 615.031 531.59C616.34 532.512 618.203 533.255 619.491 534.721C625.459 539.549 629.804 549.968 632.663 561.655C635.751 573.436 637.248 586.537 641.039 600.538L641.897 603.617L642.724 605.962L644.399 610.633L646.085 615.303L648.42 620.34C651.31 627.231 655.215 633.158 658.932 639.106C663.56 645.567 668.899 651.369 674.689 656.521C674.563 657.149 674.48 657.61 674.48 657.61L675.077 656.856C677.244 658.773 679.443 660.605 681.735 662.312C681.913 662.878 682.102 663.338 682.301 663.506C683.599 664.522 685.117 666.176 686.751 668.082C693.42 675.444 700.466 688.021 708.35 700.409C712.433 706.556 716.779 712.651 721.741 717.667C724.369 720.034 726.756 722.474 729.562 724.149C732.232 726.003 734.881 727.458 737.572 728.38C740.074 729.637 742.639 729.993 744.828 730.453C747.005 731.05 748.953 731.103 750.555 731.082C753.727 731.145 755.538 731.176 755.538 731.176C755.538 731.176 753.759 730.904 750.628 730.422C749.079 730.234 747.204 729.919 745.184 729.061C743.152 728.328 740.807 727.678 738.609 726.17C736.253 725.008 734.002 723.312 731.803 721.269C729.468 719.437 727.563 716.84 725.479 714.4C721.563 709.185 718.276 702.954 715.208 696.587C711.774 689.183 708.539 681.57 705.188 674.522C705.795 674.711 706.403 674.889 706.989 675.109L711.512 676.585C713.795 677.245 714.653 677.182 716.276 677.507C719.145 677.968 722.003 678.429 724.799 678.879C730.683 679.34 736.797 679.528 742.304 679.361C747.77 678.764 753.109 678.711 758.072 677.695C760.564 677.266 763.004 676.837 765.37 676.428C766.637 676.188 767.558 676.104 769.066 675.727L772.364 674.784C776.698 673.381 780.865 672.69 784.687 670.91C788.467 669.245 792.005 667.695 795.293 666.26C798.34 664.501 801.146 662.888 803.669 661.432C808.789 658.647 812.349 655.746 814.987 654.123C817.552 652.385 818.924 651.453 818.924 651.453C818.924 651.453 817.469 652.238 814.746 653.715C811.951 655.086 808.15 657.61 802.821 659.841C800.204 661.024 797.314 662.333 794.152 663.757C790.917 664.825 787.42 665.967 783.682 667.182C780.038 668.512 775.589 668.836 771.212 669.789L767.83 670.407L764.564 670.669C762.229 670.847 759.852 671.014 757.413 671.203C752.565 671.706 747.518 671.224 742.336 671.297C737.185 670.91 732.222 670.292 726.851 669.391C724.108 668.669 721.323 667.925 718.496 667.182C717.302 666.815 715.198 666.428 714.716 666.072L710.926 664.386C708.434 663.16 705.743 662.333 703.367 660.804C701.011 659.275 698.634 657.736 696.236 656.186C694.299 654.72 692.467 653.128 690.656 651.495C689.598 650.29 688.614 649.212 687.881 648.646C687.295 648.112 686.981 647.829 686.52 647.421C681.526 642.248 677.045 636.457 673.328 630.048C670.711 624.634 667.873 619.262 666.198 613.753C664.188 609.104 662.481 600.705 661.455 595.92C659.434 584.097 659.152 570.682 657.047 556.922C656.775 554.985 656.346 552.995 655.979 551.037C659.906 555.958 663.706 561.372 667.214 566.975C671.925 574.504 676.563 582.662 681.987 589.584C684.583 593.113 687.588 596.181 690.562 598.936C691.902 600.444 693.797 601.334 695.294 602.486C696.875 603.575 698.309 604.716 700.058 605.229C703.346 606.622 706.329 607.816 709.251 607.826C712.078 608.235 714.496 608.465 716.496 607.91C720.443 607.282 722.705 606.926 722.705 606.926C722.705 606.926 720.433 607.041 716.464 607.229C714.496 607.554 712.14 607.083 709.502 606.402C706.769 606.13 704.078 604.653 701.21 603.062C699.681 602.444 698.435 601.198 697.084 600.056C695.807 598.82 694.216 597.909 693.095 596.339C690.604 593.48 688.143 590.369 686.039 586.757C681.652 579.709 678.102 571.541 674.04 563.142C666.669 548.105 657.414 533.433 646.567 523.809C644.734 520.689 642.62 517.652 640.033 514.856C637.343 511.526 633.835 509.002 630.275 506.363C626.224 503.944 621.208 501.462 619.062 500.865L616.979 500.08L615.931 499.692L615.68 499.598L614.183 499.179L613.544 499.043L608.55 498.017C605.21 497.368 601.912 496.729 598.667 496.09C592.259 495.514 586.008 495.032 579.925 494.949C574.02 495.21 567.602 495.284 562.65 495.807C560.179 496.069 557.76 496.32 555.404 496.572L551.907 496.949L551.038 497.033L550.819 497.053L549.122 497.378L548.693 497.451L547.018 497.745C543.573 498.342 540.39 498.897 537.239 499.452C536.454 470.978 527.942 443.887 513.577 420.472C514.519 417.676 515.796 412.272 517.618 408.387C518.529 406.115 519.524 403.601 520.613 400.868C522.047 397.988 523.586 394.878 525.24 391.548C528.811 384.972 533.229 377.662 538.736 370.018C544.254 362.384 550.829 354.425 558.451 346.529C560.399 344.581 562.357 342.602 564.335 340.612L565.079 339.858L565.456 339.481L565.644 339.293C564.471 340.256 565.382 339.513 565.142 339.701L565.257 339.607L566.984 338.13L570.481 335.146C575.35 330.685 579.611 327.983 583.998 324.883C593.547 318.914 604.477 313.259 616.507 309.249C628.516 305.102 641.321 301.688 654.534 298.672C660.544 297.363 667.884 295.75 674.124 294.808C680.479 293.719 687.159 292.745 693.818 291.792C702.414 290.483 710.968 289.121 719.427 287.53L719.7 288.221C719.7 288.221 720.757 287.708 722.286 286.943C725.992 286.21 729.719 285.592 733.353 284.66C735.07 284.221 736.745 283.718 738.441 283.247C740.65 283.142 742.985 283.121 745.466 283.247C748.105 283.309 750.89 283.582 753.706 283.833L758.009 284.336C760.041 284.618 761.119 284.556 762.721 284.692C765.673 284.859 768.636 285.037 771.558 285.205C774.583 285.132 777.683 284.723 780.562 284.493C783.472 284.304 786.216 283.938 788.718 283.079C791.22 282.388 793.597 281.728 795.775 281.121C797.994 280.681 799.774 279.456 801.46 278.796C803.104 278.032 804.549 277.361 805.721 276.806C808.077 275.717 809.417 275.089 809.417 275.089C809.417 275.089 807.983 275.487 805.48 276.178C804.234 276.524 802.727 276.932 800.999 277.414C799.24 277.791 797.398 278.67 795.167 278.733C793 278.953 790.644 279.204 788.173 279.456C785.713 279.885 783.127 279.791 780.478 279.508C777.829 279.278 775.18 279.246 772.416 278.859C769.579 278.21 766.679 277.55 763.789 276.89C762.47 276.566 760.595 276.241 759.747 275.906L759.569 275.853C762.836 274.429 766.04 272.911 769.055 271.246C779.525 266.01 789.241 258.784 797.136 252.187C800.863 248.469 804.517 244.982 807.69 241.421C810.558 237.578 813.49 234.123 815.814 230.593C817.898 226.907 819.845 223.462 821.657 220.268C823.143 216.938 824.201 213.734 825.321 210.937C827.813 205.429 827.949 200.528 828.849 197.471C829.499 194.339 829.855 192.674 829.855 192.674C829.855 192.674 829.341 194.193 828.389 197.251ZM61.2309 578.588C61.2413 578.609 61.0215 578.725 61.0005 578.777C61.0529 578.704 61.1262 578.62 61.2309 578.588ZM60.8854 578.955C60.8644 579.028 60.8644 579.039 60.8854 578.955V578.955ZM254.025 400.376C253.617 400.858 253.251 401.381 252.853 401.863C253.219 401.35 253.596 400.879 254.025 400.376ZM436.005 550.325C405.453 550.325 380.702 525.569 380.702 495.011C380.702 464.465 405.453 439.698 436.005 439.698C466.556 439.698 491.307 464.465 491.307 495.011C491.307 525.569 466.556 550.325 436.005 550.325Z" fill="#86045F"/>
<path d="M245.063 411.045L245.042 410.9C245.011 410.807 245.032 411.024 245.063 411.045Z" fill="#86045F"/>
</g>
</svg>
