<svg width="128" height="128" viewBox="0 0 128 128" fill="none" xmlns="http://www.w3.org/2000/svg">
<g clip-path="url(#clip0_14_59)">
<path d="M125.742 78.6191C123.259 77.2347 118.159 74.0574 114.105 70.6447C118.247 67.9685 122.987 65.4809 123.989 65.0364C125.234 64.484 125.795 63.0272 125.243 61.7827C124.69 60.5376 123.234 59.9759 121.989 60.5288C120.506 61.1875 113.503 64.8941 108.749 68.3255H100.273C97.4824 68.3255 94.722 67.744 92.1684 66.6181C85.0619 63.4846 80.8035 56.1093 81.6433 48.388C81.9515 45.5523 82.8657 42.816 84.3235 40.3643L87.1316 35.6411C94.0406 34.7205 100.7 32.161 106.44 28.2048C107.517 27.4629 107.948 26.02 107.302 24.8827C106.575 23.6047 104.929 23.2512 103.749 24.0699C100.795 26.1204 96.2984 28.609 90.4803 30.0091L94.6417 23.01C95.3 21.9033 95.0804 20.4333 94.0421 19.6712C92.8512 18.7973 91.1971 19.1552 90.4591 20.3954L79.8528 38.2332C78.4616 40.5731 76.6124 42.6078 74.4158 44.2157C68.1492 48.803 59.6328 48.803 53.3662 44.2157C51.0966 42.5541 49.2081 40.4264 47.8287 37.9747L42.5684 28.6282C43.4915 22.8973 42.2764 12.8055 41.15 8.94773C40.7779 7.67413 39.4831 6.83721 38.1918 7.14244C36.7961 7.47229 35.9867 8.90244 36.3944 10.2548C37.3701 13.4912 38.2371 21.4021 37.8792 26.2735C34.2006 25.2367 30.622 23.7106 28.4446 22.2248C27.396 21.5095 25.9461 21.6158 25.1121 22.5728C24.129 23.7017 24.3653 25.3992 25.5616 26.2272C28.5155 28.2723 35.0129 30.7068 38.5295 31.5068L43.6308 40.5706C44.9871 42.98 45.8403 45.6399 46.1396 48.3885C46.9795 56.1093 42.721 63.4851 35.6145 66.6186C33.0609 67.7445 30.3006 68.3259 27.5097 68.3259H21.3544C17.2273 62.4251 15.8902 60.4018 15.8769 60.3811C15.1272 59.2444 13.5985 58.9293 12.4613 59.6786C11.3241 60.4279 11.0095 61.9565 11.7583 63.0932C11.8051 63.1641 12.7089 64.5327 15.3428 68.3255H3.55645C2.26857 68.3255 1.11854 69.2667 0.99645 70.5492C0.856142 72.0197 2.00863 73.2569 3.4506 73.2569H14.66C11.9961 76.0458 8.54993 79.2311 5.49466 81.4361C4.51054 82.1465 4.21023 83.4777 4.8202 84.5273L4.86599 84.6061C5.60839 85.8846 7.27337 86.2366 8.4554 85.377C13.1294 81.9781 18.4488 76.6903 21.2623 73.2569H27.5161C30.305 73.2569 33.0639 73.8378 35.6155 74.9632C42.7215 78.0963 46.98 85.4715 46.1401 93.1924C45.8403 95.9483 44.9871 98.6157 43.6313 101.034L38.7456 109.748C30.7624 110.858 23.358 115.564 23.0302 115.775C21.8846 116.511 21.5739 118.023 22.2888 119.182C23.2158 120.685 25.0329 120.324 25.696 119.923C26.0805 119.691 30.1795 117.072 35.5259 115.491L34.5679 117.254C33.918 118.426 34.3217 119.903 35.4772 120.581C36.671 121.282 38.208 120.864 38.8825 119.655L42.4345 113.252L47.8489 103.594C49.2209 101.147 51.103 99.0223 53.3667 97.3652C59.6332 92.7774 68.1497 92.7774 74.4163 97.3652C77.0324 99.2803 79.1587 101.786 80.6228 104.678L88.161 119.571C88.7774 120.786 90.2617 121.27 91.4757 120.654C92.6897 120.037 93.1747 118.554 92.5583 117.339L88.1915 108.683C91.7233 109.475 96.5475 111.023 100.089 113.825C101.208 114.71 102.817 114.282 103.554 113.443C104.453 112.419 104.236 110.828 103.173 109.977C97.2342 105.216 88.708 103.616 85.3849 103.153L83.5013 99.4423C82.5098 97.4883 81.8801 95.3709 81.6429 93.1929C80.803 85.472 85.0609 78.0968 92.1674 74.9637C94.7195 73.8383 97.4779 73.2574 100.267 73.2574H109.601C114.145 77.3627 120.436 81.2983 123.34 82.9268C124.507 83.5811 126.082 83.0331 126.694 81.9737C127.376 80.7946 126.931 79.2823 125.742 78.6191ZM55.6726 77.6404C51.1336 77.6404 47.4536 74.5738 47.4536 70.7914C47.4536 67.009 51.1331 63.9424 55.6726 63.9424C60.2117 63.9424 63.8917 67.009 63.8917 70.7914C63.8917 74.5738 60.2117 77.6404 55.6726 77.6404Z" fill="#86045F" stroke="#86045F" stroke-width="3.07692"/>
</g>
<defs>
<clipPath id="clip0_14_59">
<rect width="128" height="128" fill="white"/>
</clipPath>
</defs>
</svg>
